Coordinates
version=1
nRows=16
nColumns=36
inDegrees=yes

Units are S.I. units (second, meters, Newtons, ...)
If the header above contains a line with 'inDegrees', this indicates whether rotational values are in degrees (yes) or radians (no).

endheader
time	pelvis_tilt	pelvis_list	pelvis_rotation	pelvis_tx	pelvis_ty	pelvis_tz	hip_flexion_r	hip_adduction_r	hip_rotation_r	knee_angle_r	knee_angle_r_beta	ankle_angle_r	subtalar_angle_r	mtp_angle_r	hip_flexion_l	hip_adduction_l	hip_rotation_l	knee_angle_l	knee_angle_l_beta	ankle_angle_l	subtalar_angle_l	mtp_angle_l	lumbar_extension	lumbar_bending	lumbar_rotation	arm_flex_r	arm_add_r	arm_rot_r	elbow_flex_r	pro_sup_r	arm_flex_l	arm_add_l	arm_rot_l	elbow_flex_l	pro_sup_l
      1.01250000	    -12.70548503	      3.51419686	     -1.65660284	     -0.95328447	      1.11198885	     -0.10065430	     44.74243740	     -9.14949553	      0.26228552	     77.62564195	      1.35482304	     42.57657981	     -9.06782559	     -7.49999987	     43.09852342	      1.47363026	     -5.66564712	     75.76684737	      1.32238095	     38.11874296	    -15.03168193	     -7.49999987	    -46.94600303	      2.50558342	      1.79421858	     33.74218468	    -17.33144745	     19.11695513	     28.42977633	     73.04095826	     33.74382668	     -8.35119255	     35.90395966	     34.92763372	     70.17846541
      1.01666670	    -12.98829417	      3.47526774	     -1.29832055	     -0.95169831	      1.11786186	     -0.10586292	     44.69051545	     -9.56481920	      0.10370418	     77.15335982	      1.34658016	     42.16203501	     -8.88756859	     -7.49999987	     43.33597283	      2.27783658	     -5.13094555	     75.41269326	      1.31619980	     37.59385411	    -16.21027727	     -7.49999987	    -46.79908857	      3.03412301	      1.82317513	     35.16462824	    -17.15829343	     15.72162387	     30.11506756	     79.37332872	     35.12604105	     -7.52634430	     34.22385027	     36.44063113	     77.61957835
      1.02083330	    -13.31863896	      3.43292935	     -0.79973969	     -0.94917550	      1.11013001	     -0.10383512	     44.90509318	     -9.99557782	     -0.12775190	     77.36230018	      1.35022686	     42.56686994	     -8.12174794	     -7.49999987	     43.72105483	      2.80511683	     -4.52456144	     75.45772062	      1.31698567	     38.01014043	    -16.36077851	     -7.49999987	    -46.22698350	      3.47626678	      1.84288011	     36.18602552	    -17.12543297	     15.24993115	     31.62837612	     78.13451391	     36.32602570	     -7.03059672	     34.09664605	     38.51307452	     76.61592271
      1.02500000	    -13.67167683	      3.48389270	     -0.29213606	     -0.94586173	      1.11256846	     -0.09925779	     44.83979338	     -9.89158935	     -0.15052659	     77.12689575	      1.34611827	     42.71877195	     -8.05488155	     -7.49999987	     44.09918838	      2.95406441	     -4.16730715	     75.49601604	      1.31765405	     37.95592682	    -16.34125716	     -7.49999987	    -45.65805804	      3.43979522	      1.86927514	     37.45378485	    -16.57407945	     15.17473538	     32.13827762	     78.16031443	     38.16295740	     -6.41512145	     33.95287585	     39.22090754	     76.66009384
      1.02916670	    -14.14390415	      2.82280600	      0.59127266	     -0.94368757	      1.10914909	     -0.09764520	     44.60700049	     -9.66180726	     -1.31130114	     76.83245195	      1.34097926	     43.30692715	     -7.77401448	     -7.49999987	     44.95447838	      2.80156838	     -2.86909573	     76.15580753	      1.32916959	     37.94861181	    -16.20295857	     -7.49999987	    -44.96054877	      4.35193862	      1.85306267	     38.47473018	    -16.08843187	     14.17729906	     33.99731796	     77.53133948	     39.19205586	     -6.61454655	     33.83517283	     41.90561199	     76.38102531
      1.03333330	    -14.45316349	      2.40047138	      1.13951983	     -0.94201965	      1.11062145	     -0.09331989	     44.23119025	     -9.18738830	     -2.09008665	     76.39685005	      1.33337657	     43.93430962	     -7.17683689	     -7.49999987	     45.20069667	      2.37425031	     -2.12494692	     76.26068579	      1.33100006	     38.10843984	    -15.66917609	     -7.49999987	    -44.55402434	      4.59917313	      1.96903349	     39.30552875	    -15.21307547	     12.66153116	     35.75635680	     77.13083697	     40.37034048	     -6.83038381	     33.38353306	     44.55729918	     76.38820695
      1.03750000	    -14.97838032	      2.21406360	      1.52266727	     -0.94083107	      1.10457991	     -0.08822101	     44.88065347	     -8.64124600	     -2.34020670	     77.01470662	      1.34416020	     44.08759117	     -7.84366295	     -7.49999987	     45.83043854	      1.75250441	     -1.83553790	     76.69253449	      1.33853724	     38.50637223	    -15.18217961	     -7.49999987	    -43.70329938	      4.34309721	      2.21864250	     39.22046958	    -13.79017273	      6.97629791	     38.99399654	     86.10652593	     41.17781458	     -6.76917392	     30.93681634	     47.35496443	     85.76550536
      1.04166670	    -15.77878357	      1.81060610	      1.81388403	     -0.94340858	      1.10160460	     -0.08066886	     46.09030361	     -7.42273900	     -2.44022769	     77.81936279	      1.35820410	     43.96905608	     -9.37989654	     -7.49999987	     47.12975494	      0.64811414	     -1.59105053	     77.42129086	      1.35125644	     38.28078919	    -14.98543857	     -7.49999987	    -42.66332311	      4.08027602	      2.45967401	     40.14387192	    -12.74495055	      6.56985688	     41.52288417	     84.54773716	     42.62124192	     -7.19435419	     30.54229323	     50.04355314	     84.29368976
      1.04583330	    -16.24252510	      1.60483548	      2.09279352	     -0.94432220	      1.10148091	     -0.08016585	     46.96204655	     -6.63874133	     -2.44534521	     78.45548427	      1.36930652	     44.16400586	     -9.51628969	     -7.49999987	     47.85553878	      0.08956640	     -1.39049570	     77.61339360	      1.35460926	     38.05048569	    -14.63710598	     -7.49999987	    -41.93292015	      3.79345125	      2.52110157	     41.24815113	    -11.83274823	      6.50265551	     43.94305386	     82.78635657	     44.22248418	     -7.17243563	     29.94104873	     52.15550009	     82.53799364
      1.05000000	    -17.49668723	      1.62304201	      2.05063004	     -0.94618934	      1.10156578	     -0.08352175	     48.92284510	     -5.79013389	     -1.59131342	     78.86414789	      1.37643904	     43.18118829	    -11.45930048	     -7.49999987	     49.40657349	     -0.18055336	     -1.70196352	     77.67436532	      1.35567342	     38.12470901	    -14.37708336	     -7.49999987	    -40.29447915	      3.31696217	      2.56286739	     42.36109376	    -11.11963177	      6.34129437	     46.00679840	     82.95037099	     45.60993806	     -7.34808002	     30.27801265	     54.55524002	     82.75036766
      1.05416670	    -18.05787732	      1.98187872	      1.81051488	     -0.94250089	      1.10250916	     -0.09052142	     49.91841245	     -5.84073372	     -0.48199225	     79.08217605	      1.38024435	     41.96455214	    -12.88301432	     -7.49999987	     49.73298969	      0.33700195	     -2.18450272	     77.33558143	      1.34976052	     37.98676773	    -14.77920665	     -7.49999987	    -39.39992102	      2.89070980	      2.49191268	     43.57487658	    -10.84887661	      6.37503319	     47.93861268	     83.04833159	     46.83437389	     -6.98394957	     29.97015003	     56.64865649	     82.74759030
      1.05833330	    -18.92048004	      2.27677292	      1.50741817	     -0.94244714	      1.09719719	     -0.08998555	     51.11571871	     -6.29435578	      0.06777091	     79.20731151	      1.38242838	     41.72240277	    -12.67486855	     -7.49999987	     50.62833849	      0.76376585	     -2.47023693	     77.32860754	      1.34963881	     38.02469079	    -15.02810649	     -7.49999987	    -37.99190387	      2.54808801	      2.60581065	     44.48786215	    -10.73139174	      6.67665976	     50.36478916	     83.02614031	     47.60566581	     -6.71548570	     29.15522086	     59.43904918	     82.49946214
      1.06250000	    -19.45328888	      2.80349641	      1.08281181	     -0.93310477	      1.09550465	     -0.09134232	     51.45582443	     -6.90398394	      0.74931726	     79.11437195	      1.38080628	     41.69054869	    -12.04998401	     -7.49999987	     50.60126985	      1.17851917	     -3.12366818	     77.14228256	      1.34638682	     38.26225775	    -15.10166298	     -7.49999987	    -36.56857043	      2.00671907	      2.53309503	     44.78615357	    -10.64201520	      7.00396999	     52.35272797	     82.98628058	     47.68134938	     -6.33445451	     28.35091009	     61.52686135	     82.23293409
      1.06666670	    -20.05514468	      3.18670879	      0.59803904	     -0.91989586	      1.08993553	     -0.09091384	     51.34280988	     -7.47670683	      1.02103905	     79.05288435	      1.37973312	     42.16306154	    -11.43915886	     -7.49999987	     50.43130269	      1.27764372	     -3.74106426	     77.41513545	      1.35114900	     38.50839224	    -15.32207863	     -7.49999987	    -34.79226597	      1.65399540	      2.73465976	     44.17087436	    -10.62290160	      7.49566171	     55.10080627	     82.84573322	     46.58091289	     -6.03599073	     27.42607446	     64.55909741	     81.82037563
      1.07083330	    -20.40144821	      3.37980167	      0.13676476	     -0.91509666	      1.09393606	     -0.09050632	     50.71797137	     -7.58442079	      1.18627310	     78.34163837	      1.36731953	     42.33038494	    -11.38240040	     -7.49999987	     49.65555148	      1.35339551	     -4.16334925	     76.77765377	      1.34002285	     38.33860923	    -15.55372960	     -7.49999987	    -33.49123330	      1.37248011	      2.98495183	     44.04230824	    -10.59029617	      8.18786289	     57.47523286	     82.71283191	     45.98017219	     -5.71848063	     26.52327792	     67.20083962	     81.40989646
      1.07500000	    -20.62294445	      3.43997821	     -0.09062107	     -0.90679854	      1.09732144	     -0.08732943	     49.69000660	     -7.55814086	      1.03076633	     77.46001279	      1.35193226	     42.46060342	    -11.36904234	     -7.49999987	     48.48803895	      1.42237909	     -4.22705933	     75.38313801	      1.31568396	     38.66757051	    -14.95862590	     -7.49999987	    -32.24327078	      1.24326676	      2.99358643	     43.86441713	    -10.26365922	      9.09748416	     59.23323352	     82.19453427	     45.09940649	     -5.78130752	     25.83216881	     69.80459850	     80.43813041
